<?xml version="1.0" ?><!DOCTYPE svg  PUBLIC '-//W3C//DTD SVG 1.1//EN'  'http://www.w3.org/Graphics/SVG/1.1/DTD/svg11.dtd'><svg enable-background="new 0 0 800 800" height="800px" id="Layer_1" version="1.1" viewBox="0 0 800 800" width="800px" xml:space="preserve" xmlns="http://www.w3.org/2000/svg" xmlns:xlink="http://www.w3.org/1999/xlink"><g><path d="M579.609,602.784c-7.897,0-14.297,6.398-14.297,14.296v43.435c0,7.882,6.399,14.297,14.297,14.297   c7.883,0,14.298-6.415,14.298-14.297V617.08C593.907,609.183,587.492,602.784,579.609,602.784z" fill="#4D4D4D"/><path d="M215.227,602.784c-7.898,0-14.297,6.398-14.297,14.296v43.435c0,7.882,6.399,14.297,14.297,14.297   c7.898,0,14.297-6.415,14.297-14.297V617.08C229.523,609.183,223.125,602.784,215.227,602.784z" fill="#4D4D4D"/><path d="M579.609,697.07c-7.897,0-14.297,6.398-14.297,14.297v18.238c0,7.898,6.399,14.298,14.297,14.298   c7.883,0,14.298-6.399,14.298-14.298v-18.238C593.907,703.469,587.492,697.07,579.609,697.07z" fill="#4D4D4D"/><path d="M215.227,697.07c-7.898,0-14.297,6.398-14.297,14.297v18.238c0,7.898,6.399,14.298,14.297,14.298   c7.898,0,14.297-6.399,14.297-14.298v-18.238C229.523,703.469,223.125,697.07,215.227,697.07z" fill="#4D4D4D"/><path d="M770.657,560.978H593.477l0.095-104.004c33.223-0.289,66.443-0.591,99.569-1.053   c7.882-0.113,14.201-6.607,14.089-14.506c-0.111-7.882-6.366-14.089-14.504-14.089c-8.186,0.11-16.419,0.144-24.605,0.255V283.924   c13.341,6.75,28.291,12.031,44.934,15.558v57.635c0,7.899,6.398,14.297,14.297,14.297c7.899,0,14.297-6.398,14.297-14.297v-53.614   c1.708,0.128,3.352,0.319,5.075,0.415c0.271,0.016,0.542,0.031,0.797,0.031c7.532,0,13.851-5.903,14.267-13.515   c0.446-7.883-5.602-14.632-13.483-15.063C627.048,268.654,594.194,160.15,593.891,96.945c0-0.047,0-0.111,0-0.159   c0-0.064-0.016-0.128-0.016-0.192l0.032-26.185c0-7.898-6.399-14.297-14.298-14.313l0,0c-7.897,0-14.297,6.399-14.297,14.297   l-0.031,26.807c-0.096,52.21-19.293,102.33-51.413,134.115c-29.822,29.535-70.001,44.279-120.088,43.752   c-118.876-1.196-162.917-104.69-163.969-175.649c0-0.861,0.064-1.771,0.064-2.617c0-0.368-0.08-0.718-0.112-1.085V70.394   c0-7.882-6.399-14.297-14.297-14.297c-7.897,0-14.296,6.415-14.296,14.297v26.313c0,0.032-0.017,0.048-0.017,0.08   c0,0.127,0.017,0.271,0.017,0.415v3.941c-1.102,39.078-16.372,95.995-56.71,134.514c-29.767,28.451-68.302,41.774-114.48,39.764   c-8.046-0.462-14.572,5.76-14.918,13.643c-0.356,7.898,5.756,14.568,13.646,14.919c3.558,0.16,7.081,0.24,10.568,0.24   c34.912,0,65.939-8.122,92.915-23.888v146.593c-16.683-0.256-33.461-0.398-50.096-0.687c-7.556-0.287-14.401,6.144-14.544,14.025   c-0.143,7.899,6.143,14.408,14.034,14.553c39.708,0.718,79.664,1.148,119.587,1.611v104.548H37.415   c-7.895,0-14.297,6.398-14.297,14.297c0,7.899,6.403,14.298,14.297,14.298h733.242c7.882,0,14.297-6.398,14.297-14.298   C784.954,567.376,778.539,560.978,770.657,560.978z M639.526,265.51v162.357c-15.302,0.176-30.604,0.336-45.938,0.464l0.191-218.27   C604.933,230.598,619.9,249.825,639.526,265.51z M565.186,210.046l-0.192,218.588c-14.647,0.112-29.264,0.224-43.928,0.287v-165.74   c4.451-3.622,8.792-7.452,12.925-11.537C546.038,239.708,556.504,225.635,565.186,210.046z M447.537,429.081V298.046   c16.069-3.622,31.1-8.952,44.934-16.18v147.12C477.488,429.049,462.521,429.064,447.537,429.081z M396.269,303.678   c7.754,0,15.287-0.399,22.674-1.069v126.536c-14.983,0-29.95,0.031-44.934,0V302.562c6.319,0.606,12.766,1.038,19.483,1.101   C394.418,303.678,395.344,303.678,396.269,303.678z M300.482,428.714V280.382c13.42,7.499,28.339,13.499,44.933,17.519v131.084   C330.433,428.921,315.449,428.81,300.482,428.714z M271.936,260.389c-0.016,0.143-0.047,0.287-0.047,0.431v167.735   c-14.042-0.112-28.1-0.144-42.125-0.271V207.588C240.438,227.023,254.368,245.182,271.936,260.389z M160.783,427.326V260.819   c0-0.479-0.096-0.926-0.144-1.389c1.181-1.053,2.425-1.994,3.574-3.095c15.286-14.6,27.445-31.45,36.956-49.066v220.615   C187.686,427.726,174.25,427.501,160.783,427.326z M229.763,456.813c63.715,0.638,127.573,1.037,191.51,1.037   c47.918,0,95.834-0.207,143.703-0.574l-0.095,103.701H229.763V456.813z" fill="#4D4D4D"/></g></svg>